<?xml version="1.0" encoding="UTF-8"?><svg id="Calque_1" xmlns="http://www.w3.org/2000/svg" viewBox="0 0 760.27 607.87"><defs><style>.cls-1{fill:#fff;stroke-width:0px;}</style></defs><path class="cls-1" d="M678.45,389.64c1.34,10.54-.64,21.05-1.86,31.48-.82,7.82-.45,16.31,3.95,23.11-.07-13.55.44-27.08.52-40.63-.16-4.71-.12-9.77-2.6-13.97Z"/><path class="cls-1" d="M691.96,151.87c-23.39.37-46.81,1.36-70.19.23-22.97,67.27-36.21,137.52-60.8,204.27-4.44-17.86-9.88-35.45-14.8-53.19-13.08-45.54-26.38-91.02-40.78-136.16-1.54-4.94-3.27-9.83-4.56-14.85-22.44.9-44.91.33-67.35-.25-22.43-.24-45.06-.29-67.19,3.96,9.66-.08,19.72-1.08,28.87,2.78,8.38,3.2,14.44,11.05,16.15,19.78,2.57,12.51,2.54,25.36,2.84,38.08.33,44.67-3.91,89.2-4.35,133.85-16.4-66.37-41.47-130.09-63.89-194.54-22.98,0-45.96.13-68.94.04-6.58,16.18-12.43,32.63-18.02,49.17h0s-.12.37-.12.37c-.88,2.62-1.76,5.23-2.63,7.85l-53.81,160.59c-2.44,7.12-4.87,13.83-7.72,20.68-8.98,20.57-20.75,40.8-38.77,54.74-9.85,7.77-21.54,12.81-33.62,15.92v.97c22.87-.27,45.74.18,68.6.87,21.03.31,42.16.41,63.01-2.77,2.83-.5,5.65-1.15,8.43-1.91-15.05,1.65-31.28.37-44.24-8.18-10.39-6.73-16.46-18.47-18.66-30.4-1.44-7.82-1.2-17.36-.25-26.26.55-5.2,1.66-9.32,3.43-15.26,1.87-6.25,4.29-12.32,6.44-18.48,18.19-52.24,36.39-104.48,54.58-156.72h0c2.17,7.98,5.05,15.73,7.51,23.62,26.23,80.06,53.52,159.8,83.97,238.36,1.5,3.64,2.89,7.33,4.11,11.07.52-5.55-1.16-10.94-2.07-16.35-4.47-20.7-12-40.58-17.1-61.12-1.57-6.09-3.01-12.23-3.52-18.5,5.38,18.24,13.66,35.42,19.77,53.41.42,1.11.9,2.22,1.37,3.33.52-5.64,1.79-11.33.52-16.97-2.02-18.62-11.79-35.21-15.11-53.52-1.07-5.35-1.11-10.94.62-16.16,1.01,7.68,1.98,15.42,4.43,22.81,6.35,19.89,14.51,39.15,23.26,58.09,4.9,10.19,9.62,20.54,15.76,30.06-8.26-18.36-10.5-38.55-15.58-57.87,6.19-4.32,7.36-12.42,7.64-19.42.04-6.07-.09-12.47-2.67-18.08-1.45-2.62-2.66.62-3.46,1.88-.71-12.08-4.46-23.86-4.08-36.01,2.42,5.42,3.48,11.29,5.09,16.98,5.39,20.3,9.75,41.07,18.66,60.21,1.17,2.68,2.51,5.28,4.25,7.64-3.28-15.89-8.72-31.61-8.17-48.03,2.66,6.1,3.78,13.04,8.18,18.26-.61-8.71-3.83-16.91-7.18-24.89-2.31-5.72-4.92-11.55-5-17.82,11.83,21.39,15.07,46.01,22.24,69.09,3.03,9.32,5.84,18.96,11.29,27.21-3.96-26.49-17.6-50.44-21.22-77.02.27-3.52-.17-7.03-.14-10.55-.49.39-1.48,1.18-1.97,1.57-.82-3.42-2.58-6.48-3.77-9.76,1.02-.34,2.05-.67,3.08-.99.24,1.85.48,3.7.75,5.55,1.35-1.54,1.6-4.89,4.05-4.8,4.49,7.79,3.19,17.08,3.4,25.67.11,4.84,1.04,10.61,5.62,13.28,3.2,1.71,5.2,4.97,6.3,8.34.9,3.29-1,6.55-.6,9.87.29,1.75,1.09,3.35,1.8,4.96.6.03,1.8.06,2.39.08,5.57,8.77,6.82,19.49,12.02,28.41,1.25-5.5-.85-10.87-1.14-16.32,1.04,1.06,2.05,2.13,3.08,3.21.53-17.12-8.47-32.32-13.39-48.21-4.57-13.05-4.98-27.01-5.33-40.69-.23-5.68-.24-9.38-.03-15.77,1.13-35.52,4.85-70.93,5-106.49.08-5.12-.24-10.27.58-15.36,6.9,26.33,15.02,52.32,22.89,78.36,17.02,55.63,35.24,110.9,52.59,166.43,15.79-.06,31.58-.03,47.36,0,10.88-35.1,20.29-70.63,30.19-106.01,12.24-44.09,24.23-88.26,37.95-131.91-.06,15.49.62,30.97.46,46.45.19,51.89-.7,103.82,1.61,155.68.52,21.43,2.28,42.81,3.82,64.18,2.32-8.87,2.4-18.16,3.08-27.26.92-11.67.85-23.39.82-35.09.53-14.2.16-28.54,2.49-42.6.87,24.48-.18,49.16,3.67,73.45,2.86-6.19,3.91-13,4.49-19.73,1.43-17.59-.61-35.5,3.48-52.83.46-1.95,1.23-3.79,2.01-5.61,2.97,13.1,1.93,26.61,2.13,39.93.07,14.09-.83,29.02,5.64,42.01,1.44-10.25,0-20.7,2.01-30.89.27-1.8.98-3.48,1.82-5.08.15.67.44,2.01.6,2.69,2.48.88,4.52,2.54,5.75,4.9,1.05-3.8,2.57-7.45,3.58-11.26,3.39-11.96,3.92-24.53,7.51-36.43.48,4.22.56,8.49.49,12.75-.49,15.2-.86,30.42-.41,45.63.57-.28,1.69-.84,2.24-1.12.57-4.5-.28-9.09.44-13.55,4.96-11.51,1.81-24.45,4.8-36.4.71,3.28-.29,6.7.46,9.93,1.23.7,2.7.72,4.06,1.02.35-5.01-.24-9.99-1.08-14.92-.57-3.8-.86-7.94,1.31-11.32,3.74,7.06,1.02,15.11,2.06,22.61.03,1.45,1.11,2.47,1.95,3.53,2.54-7.21-.64-15.47,3.53-22.2,1.28,4.65,3.2,9.15,3.69,13.98.3,2.12.13,4.48,1.68,6.2,1.1-5.44,1.02-11.01.9-16.53,2.49,7.21,3,14.86,3.95,22.38,1.66,15.01,1.58,30.43-2.44,45.07-.42-11.3.18-22.63-.29-33.93-.69-4.73-1.26-10.94-6-13.38-1.11,4.05-2.19,8.29-1.44,12.51.69,5.39,3.16,10.28,4.92,15.37.75,1.3-.33,2.48-.82,3.66-2.03,3.46-1.68,7.64-1.45,11.5.83,7.73,2.78,15.34,3.11,23.14-.92,1.2-1.77,2.46-2.49,3.79,2.75-.36,4.87-2.3,5.28-5.08,5.15-20.45,6.98-41.58,7.95-62.6,1.34-24.07,1.39-48.21.84-72.32-.91-24.07-2.15-48.11-3.22-72.18-.51-23.96-.99-48.19,3.71-71.82,1.62-8.15,9.11-13.55,16.68-15.75,9.33-3.18,19.23-2.73,28.93-2.71-18.43-3.96-37.37-4.09-56.12-4.06ZM403.92,355.37c-1.85-1.88-1.32-4.92-2.34-7.23-.36-1.45-1.98-2.2-2.24-3.65.5-.2,1.5-.6,1.99-.8-.93-2.06-3.41-3.35-3.2-5.84,0-1.33.11-2.66.34-3.97,1.36,1.21,2.87,2.39,3.66,4.09,1.8,3.09.82,6.82,1.71,10.15.59,2.02,1.75,3.79,2.69,5.66-.85.56-1.72,1.09-2.61,1.59ZM425.53,413.65c-3.88-4.22-5.96-9.73-7.49-15.15-1.09-4.31-2.59-8.55-2.98-13,7.18,7.5,9.3,18.21,10.48,28.15ZM414.4,376.83c.98,3.94-.44,8.73-4.16,10.74.68-6.89-3.2-13.27-2.35-20.15.07-2.26,1.01-4.35,2.2-6.23,1.69,5.13,3.15,10.37,4.31,15.65Z"/><path class="cls-1" d="M453.18,0C283.57,0,146.08,136.08,146.08,303.94c0,11.19.63,22.24,1.82,33.12,11.35,26.52,18.27,32.69,21.8,33.67-5.22-21.73-7.87-44.06-7.87-66.79,0-38.89,7.69-76.61,22.87-112.11,14.66-34.31,35.66-65.13,62.41-91.6,26.76-26.48,57.92-47.28,92.62-61.8,35.92-15.04,74.09-22.66,113.45-22.66s77.53,7.62,113.45,22.66c34.7,14.52,65.86,35.32,92.62,61.8,3.67,3.63,7.21,7.35,10.66,11.14,15.54,11.43,32.83,22.27,40.99,27.26C656.15,55.19,561.18,0,453.18,0Z"/><path class="cls-1" d="M738.28,190.82c-3.62-1.6-7.32,10.81-9.45,19.59,10.41,29.98,15.69,61.35,15.69,93.52,0,38.89-7.69,76.61-22.87,112.11-14.66,34.31-35.66,65.13-62.41,91.6-26.76,26.48-57.92,47.28-92.62,61.8-35.92,15.04-74.09,22.66-113.45,22.66s-77.53-7.62-113.45-22.66c-34.7-14.52-65.86-35.32-92.62-61.8-1.15-1.14-2.27-2.29-3.39-3.44-.26.01-.51.03-.78.03-9.75,0-12.44,4.52-12.93,8.45,55.98,58.6,135.26,95.18,223.18,95.18,169.61,0,307.1-136.08,307.1-303.94,0-39.98-7.82-78.15-21.99-113.12Z"/></svg>